<?xml version="1.0" encoding="UTF-8"?> <svg xmlns="http://www.w3.org/2000/svg" width="560" height="200" viewBox="0 0 560 200" fill="none"> <rect x="1.5" y="1.5" width="557" height="197" fill="white" stroke="#C3A07D" stroke-width="3"></rect> <g filter="url(#filter0_d)"> <rect x="43" y="108" width="473.6" height="60" fill="#C3A07D"></rect> <path d="M225.114 133H223.418L219.964 127.349L216.448 133H214.866L219.138 126.285L215.156 120.15H216.809L219.999 125.239L223.216 120.15H224.807L220.825 126.232L225.114 133ZM238.105 126.558C238.105 128.614 237.583 130.231 236.54 131.409C235.503 132.587 234.059 133.176 232.207 133.176C230.315 133.176 228.853 132.599 227.821 131.444C226.796 130.284 226.283 128.649 226.283 126.54C226.283 124.448 226.799 122.828 227.83 121.68C228.862 120.525 230.326 119.948 232.225 119.948C234.07 119.948 235.512 120.534 236.549 121.706C237.586 122.878 238.105 124.495 238.105 126.558ZM227.865 126.558C227.865 128.298 228.235 129.619 228.973 130.521C229.717 131.418 230.795 131.866 232.207 131.866C233.631 131.866 234.706 131.418 235.433 130.521C236.159 129.625 236.523 128.304 236.523 126.558C236.523 124.829 236.159 123.52 235.433 122.629C234.712 121.732 233.643 121.284 232.225 121.284C230.801 121.284 229.717 121.735 228.973 122.638C228.235 123.534 227.865 124.841 227.865 126.558ZM249.961 133H248.467V127.691C247.594 128.002 246.867 128.216 246.287 128.333C245.707 128.444 245.107 128.5 244.486 128.5C243.273 128.5 242.338 128.222 241.682 127.665C241.031 127.108 240.706 126.306 240.706 125.257V120.15H242.2V125.081C242.2 125.79 242.385 126.314 242.754 126.654C243.129 126.994 243.736 127.164 244.573 127.164C245.142 127.164 245.684 127.123 246.199 127.041C246.721 126.953 247.477 126.748 248.467 126.426V120.15H249.961V133ZM254.303 133.176C253.653 133.176 253.081 133.088 252.589 132.912V131.453C253.134 131.705 253.688 131.831 254.25 131.831C254.895 131.831 255.41 131.685 255.797 131.392C256.19 131.093 256.579 130.536 256.966 129.722L251.965 120.15H253.617L257.414 127.454C257.561 127.741 257.675 128.022 257.757 128.298H257.827C257.991 127.806 258.106 127.495 258.17 127.366L261.325 120.15H262.907L258.803 129.344C258.311 130.439 257.865 131.236 257.467 131.734C257.074 132.232 256.629 132.599 256.131 132.833C255.639 133.062 255.029 133.176 254.303 133.176ZM269.35 120.15H272.98C274.685 120.15 275.918 120.405 276.68 120.915C277.442 121.425 277.822 122.23 277.822 123.332C277.822 124.094 277.609 124.724 277.181 125.222C276.759 125.714 276.141 126.033 275.326 126.18V126.268C277.278 126.602 278.253 127.627 278.253 129.344C278.253 130.492 277.863 131.389 277.084 132.033C276.311 132.678 275.227 133 273.832 133H269.35V120.15ZM270.844 125.652H273.305C274.36 125.652 275.118 125.488 275.581 125.16C276.044 124.826 276.276 124.267 276.276 123.481C276.276 122.761 276.018 122.242 275.502 121.926C274.987 121.604 274.166 121.442 273.041 121.442H270.844V125.652ZM270.844 126.918V131.726H273.525C274.562 131.726 275.341 131.526 275.862 131.128C276.39 130.724 276.654 130.094 276.654 129.238C276.654 128.441 276.384 127.855 275.845 127.48C275.312 127.105 274.497 126.918 273.402 126.918H270.844ZM290.268 133H288.457L282.516 126.487V133H281.022V120.15H282.516V126.373L288.308 120.15H290.022L284.335 126.391L290.268 133ZM292.852 133.176C292.201 133.176 291.63 133.088 291.138 132.912V131.453C291.683 131.705 292.237 131.831 292.799 131.831C293.444 131.831 293.959 131.685 294.346 131.392C294.738 131.093 295.128 130.536 295.515 129.722L290.514 120.15H292.166L295.963 127.454C296.11 127.741 296.224 128.022 296.306 128.298H296.376C296.54 127.806 296.654 127.495 296.719 127.366L299.874 120.15H301.456L297.352 129.344C296.86 130.439 296.414 131.236 296.016 131.734C295.623 132.232 295.178 132.599 294.68 132.833C294.188 133.062 293.578 133.176 292.852 133.176ZM308.725 121.302C307.313 121.302 306.196 121.773 305.376 122.717C304.562 123.654 304.154 124.94 304.154 126.575C304.154 128.257 304.547 129.558 305.332 130.478C306.123 131.392 307.248 131.849 308.707 131.849C309.604 131.849 310.626 131.688 311.775 131.365V132.675C310.884 133.009 309.785 133.176 308.479 133.176C306.586 133.176 305.124 132.602 304.093 131.453C303.068 130.305 302.555 128.673 302.555 126.558C302.555 125.233 302.801 124.073 303.293 123.077C303.791 122.081 304.506 121.313 305.438 120.774C306.375 120.235 307.477 119.966 308.742 119.966C310.09 119.966 311.268 120.212 312.276 120.704L311.643 121.987C310.67 121.53 309.697 121.302 308.725 121.302ZM324.334 133H322.84V126.953H316.072V133H314.578V120.15H316.072V125.617H322.84V120.15H324.334V133ZM339.021 126.558C339.021 128.614 338.499 130.231 337.456 131.409C336.419 132.587 334.975 133.176 333.123 133.176C331.231 133.176 329.769 132.599 328.737 131.444C327.712 130.284 327.199 128.649 327.199 126.54C327.199 124.448 327.715 122.828 328.746 121.68C329.778 120.525 331.242 119.948 333.141 119.948C334.987 119.948 336.428 120.534 337.465 121.706C338.502 122.878 339.021 124.495 339.021 126.558ZM328.781 126.558C328.781 128.298 329.151 129.619 329.889 130.521C330.633 131.418 331.711 131.866 333.123 131.866C334.547 131.866 335.622 131.418 336.349 130.521C337.075 129.625 337.439 128.304 337.439 126.558C337.439 124.829 337.075 123.52 336.349 122.629C335.628 121.732 334.559 121.284 333.141 121.284C331.717 121.284 330.633 121.735 329.889 122.638C329.151 123.534 328.781 124.841 328.781 126.558ZM164.883 156.176C164.233 156.176 163.661 156.088 163.169 155.912V154.453C163.714 154.705 164.268 154.831 164.83 154.831C165.475 154.831 165.99 154.685 166.377 154.392C166.77 154.093 167.159 153.536 167.546 152.722L162.545 143.15H164.197L167.994 150.454C168.141 150.741 168.255 151.022 168.337 151.298H168.407C168.571 150.806 168.686 150.495 168.75 150.366L171.905 143.15H173.487L169.383 152.344C168.891 153.439 168.445 154.236 168.047 154.734C167.654 155.232 167.209 155.599 166.711 155.833C166.219 156.062 165.61 156.176 164.883 156.176ZM184.843 156H183.349V144.478H176.748V156H175.254V143.15H184.843V156ZM196.462 156L194.862 151.913H189.712L188.13 156H186.618L191.698 143.098H192.955L198.009 156H196.462ZM194.397 150.568L192.903 146.587C192.709 146.083 192.51 145.465 192.305 144.732C192.176 145.295 191.991 145.913 191.751 146.587L190.239 150.568H194.397ZM209.022 156H207.211L201.27 149.487V156H199.776V143.15H201.27V149.373L207.062 143.15H208.776L203.089 149.391L209.022 156ZM221.95 149.558C221.95 151.614 221.429 153.231 220.386 154.409C219.349 155.587 217.904 156.176 216.053 156.176C214.16 156.176 212.698 155.599 211.667 154.444C210.642 153.284 210.129 151.649 210.129 149.54C210.129 147.448 210.645 145.828 211.676 144.68C212.707 143.525 214.172 142.948 216.07 142.948C217.916 142.948 219.358 143.534 220.395 144.706C221.432 145.878 221.95 147.495 221.95 149.558ZM211.711 149.558C211.711 151.298 212.08 152.619 212.819 153.521C213.563 154.418 214.641 154.866 216.053 154.866C217.477 154.866 218.552 154.418 219.279 153.521C220.005 152.625 220.368 151.304 220.368 149.558C220.368 147.829 220.005 146.52 219.279 145.629C218.558 144.732 217.488 144.284 216.07 144.284C214.647 144.284 213.563 144.735 212.819 145.638C212.08 146.534 211.711 147.841 211.711 149.558ZM224.824 143.15H228.454C230.159 143.15 231.393 143.405 232.154 143.915C232.916 144.425 233.297 145.23 233.297 146.332C233.297 147.094 233.083 147.724 232.655 148.222C232.234 148.714 231.615 149.033 230.801 149.18V149.268C232.752 149.602 233.728 150.627 233.728 152.344C233.728 153.492 233.338 154.389 232.559 155.033C231.785 155.678 230.701 156 229.307 156H224.824V143.15ZM226.319 148.652H228.779C229.834 148.652 230.593 148.488 231.056 148.16C231.519 147.826 231.75 147.267 231.75 146.481C231.75 145.761 231.492 145.242 230.977 144.926C230.461 144.604 229.641 144.442 228.516 144.442H226.319V148.652ZM226.319 149.918V154.726H228.999C230.036 154.726 230.816 154.526 231.337 154.128C231.864 153.724 232.128 153.094 232.128 152.238C232.128 151.441 231.859 150.855 231.32 150.48C230.786 150.105 229.972 149.918 228.876 149.918H226.319ZM244.573 156L242.974 151.913H237.823L236.241 156H234.73L239.81 143.098H241.067L246.12 156H244.573ZM242.508 150.568L241.014 146.587C240.82 146.083 240.621 145.465 240.416 144.732C240.287 145.295 240.103 145.913 239.862 146.587L238.351 150.568H242.508ZM251.842 156H250.348V144.478H246.279V143.15H255.911V144.478H251.842V156ZM266.722 152.256C266.722 153.445 266.323 154.368 265.527 155.024C264.736 155.675 263.605 156 262.134 156H257.854V143.15H259.348V148.635H261.905C263.47 148.635 264.662 148.945 265.483 149.566C266.309 150.182 266.722 151.078 266.722 152.256ZM259.348 154.708H261.976C264.109 154.708 265.175 153.891 265.175 152.256C265.175 151.465 264.9 150.885 264.349 150.516C263.804 150.141 262.928 149.953 261.721 149.953H259.348V154.708ZM279.615 144.302C278.203 144.302 277.087 144.773 276.267 145.717C275.452 146.654 275.045 147.94 275.045 149.575C275.045 151.257 275.438 152.558 276.223 153.478C277.014 154.392 278.139 154.849 279.598 154.849C280.494 154.849 281.517 154.688 282.665 154.365V155.675C281.775 156.009 280.676 156.176 279.369 156.176C277.477 156.176 276.015 155.602 274.984 154.453C273.958 153.305 273.445 151.673 273.445 149.558C273.445 148.233 273.692 147.073 274.184 146.077C274.682 145.081 275.397 144.313 276.328 143.774C277.266 143.235 278.367 142.966 279.633 142.966C280.981 142.966 282.158 143.212 283.166 143.704L282.533 144.987C281.561 144.53 280.588 144.302 279.615 144.302ZM285.469 143.15H289.099C290.804 143.15 292.037 143.405 292.799 143.915C293.561 144.425 293.942 145.23 293.942 146.332C293.942 147.094 293.728 147.724 293.3 148.222C292.878 148.714 292.26 149.033 291.445 149.18V149.268C293.397 149.602 294.372 150.627 294.372 152.344C294.372 153.492 293.983 154.389 293.203 155.033C292.43 155.678 291.346 156 289.951 156H285.469V143.15ZM286.963 148.652H289.424C290.479 148.652 291.237 148.488 291.7 148.16C292.163 147.826 292.395 147.267 292.395 146.481C292.395 145.761 292.137 145.242 291.621 144.926C291.106 144.604 290.285 144.442 289.16 144.442H286.963V148.652ZM286.963 149.918V154.726H289.644C290.681 154.726 291.46 154.526 291.982 154.128C292.509 153.724 292.773 153.094 292.773 152.238C292.773 151.441 292.503 150.855 291.964 150.48C291.431 150.105 290.616 149.918 289.521 149.918H286.963ZM308.294 149.558C308.294 151.614 307.773 153.231 306.73 154.409C305.693 155.587 304.248 156.176 302.397 156.176C300.504 156.176 299.042 155.599 298.011 154.444C296.986 153.284 296.473 151.649 296.473 149.54C296.473 147.448 296.988 145.828 298.02 144.68C299.051 143.525 300.516 142.948 302.414 142.948C304.26 142.948 305.701 143.534 306.738 144.706C307.776 145.878 308.294 147.495 308.294 149.558ZM298.055 149.558C298.055 151.298 298.424 152.619 299.162 153.521C299.906 154.418 300.985 154.866 302.397 154.866C303.82 154.866 304.896 154.418 305.622 153.521C306.349 152.625 306.712 151.304 306.712 149.558C306.712 147.829 306.349 146.52 305.622 145.629C304.902 144.732 303.832 144.284 302.414 144.284C300.99 144.284 299.906 144.735 299.162 145.638C298.424 146.534 298.055 147.841 298.055 149.558ZM311.186 143.15H312.583V150.296C312.583 151.614 312.542 152.807 312.46 153.873H312.53L319.737 143.15H321.372V156H319.966V148.925C319.966 147.747 320.016 146.511 320.115 145.216H320.036L312.82 156H311.186V143.15ZM330.381 156.176C329.731 156.176 329.159 156.088 328.667 155.912V154.453C329.212 154.705 329.766 154.831 330.328 154.831C330.973 154.831 331.488 154.685 331.875 154.392C332.268 154.093 332.657 153.536 333.044 152.722L328.043 143.15H329.695L333.492 150.454C333.639 150.741 333.753 151.022 333.835 151.298H333.905C334.07 150.806 334.184 150.495 334.248 150.366L337.404 143.15H338.986L334.881 152.344C334.389 153.439 333.944 154.236 333.545 154.734C333.153 155.232 332.707 155.599 332.209 155.833C331.717 156.062 331.108 156.176 330.381 156.176ZM346.254 144.302C344.842 144.302 343.726 144.773 342.905 145.717C342.091 146.654 341.684 147.94 341.684 149.575C341.684 151.257 342.076 152.558 342.862 153.478C343.653 154.392 344.778 154.849 346.237 154.849C347.133 154.849 348.155 154.688 349.304 154.365V155.675C348.413 156.009 347.315 156.176 346.008 156.176C344.115 156.176 342.654 155.602 341.622 154.453C340.597 153.305 340.084 151.673 340.084 149.558C340.084 148.233 340.33 147.073 340.822 146.077C341.32 145.081 342.035 144.313 342.967 143.774C343.904 143.235 345.006 142.966 346.272 142.966C347.619 142.966 348.797 143.212 349.805 143.704L349.172 144.987C348.199 144.53 347.227 144.302 346.254 144.302ZM361.248 156H359.754V144.478H355.579L355.307 146.587C354.949 149.394 354.633 151.447 354.358 152.748C354.088 154.043 353.731 154.945 353.285 155.455C352.84 155.965 352.248 156.214 351.51 156.202C351.076 156.202 350.687 156.129 350.341 155.982V154.726C350.657 154.878 350.988 154.954 351.334 154.954C351.645 154.954 351.914 154.828 352.143 154.576C352.377 154.318 352.582 153.876 352.758 153.249C352.94 152.616 353.165 151.421 353.435 149.663C353.71 147.899 354.012 145.729 354.34 143.15H361.248V156ZM365.59 156.176C364.94 156.176 364.368 156.088 363.876 155.912V154.453C364.421 154.705 364.975 154.831 365.537 154.831C366.182 154.831 366.697 154.685 367.084 154.392C367.477 154.093 367.866 153.536 368.253 152.722L363.252 143.15H364.904L368.701 150.454C368.848 150.741 368.962 151.022 369.044 151.298H369.114C369.279 150.806 369.393 150.495 369.457 150.366L372.612 143.15H374.195L370.09 152.344C369.598 153.439 369.153 154.236 368.754 154.734C368.362 155.232 367.916 155.599 367.418 155.833C366.926 156.062 366.317 156.176 365.59 156.176ZM383.124 143.15V144.495H377.455V156H375.961V143.15H383.124ZM385.348 143.15H386.745V150.296C386.745 151.614 386.704 152.807 386.622 153.873H386.693L393.9 143.15H395.534V156H394.128V148.925C394.128 147.747 394.178 146.511 394.278 145.216H394.198L386.983 156H385.348V143.15Z" fill="#0B0B0B"></path> </g> <path d="M57.7129 68H47.9668V66.0664L52.5664 61.1641C53.1979 60.474 53.6634 59.8717 53.9629 59.3574C54.2689 58.8431 54.4219 58.3548 54.4219 57.8926C54.4219 57.2611 54.2624 56.7663 53.9434 56.4082C53.6243 56.0436 53.1686 55.8613 52.5762 55.8613C51.9382 55.8613 51.4336 56.0827 51.0625 56.5254C50.6979 56.9616 50.5156 57.5378 50.5156 58.2539H47.6836C47.6836 57.388 47.8887 56.597 48.2988 55.8809C48.7155 55.1647 49.3014 54.6048 50.0566 54.2012C50.8118 53.791 51.668 53.5859 52.625 53.5859C54.0898 53.5859 55.2259 53.9375 56.0332 54.6406C56.847 55.3438 57.2539 56.3366 57.2539 57.6191C57.2539 58.3223 57.0716 59.0384 56.707 59.7676C56.3424 60.4967 55.7174 61.3464 54.832 62.3164L51.5996 65.7246H57.7129V68ZM68.4941 64.0059L70.4473 57.4336H73.4746L69.2266 69.6406L68.9922 70.1973C68.3607 71.5775 67.319 72.2676 65.8672 72.2676C65.457 72.2676 65.0404 72.2057 64.6172 72.082V69.9434L65.0469 69.9531C65.5807 69.9531 65.9779 69.8717 66.2383 69.709C66.5052 69.5462 66.7135 69.276 66.8633 68.8984L67.1953 68.0293L63.4941 57.4336H66.5312L68.4941 64.0059ZM84.0996 62.8145C84.0996 64.4421 83.7285 65.7474 82.9863 66.7305C82.2507 67.707 81.2546 68.1953 79.998 68.1953C78.9303 68.1953 78.0677 67.8242 77.4102 67.082V72.0625H74.5879V57.4336H77.2051L77.3027 58.4688C77.9863 57.6484 78.8783 57.2383 79.9785 57.2383C81.2806 57.2383 82.293 57.7201 83.0156 58.6836C83.7383 59.6471 84.0996 60.9753 84.0996 62.668V62.8145ZM81.2773 62.6094C81.2773 61.6263 81.1016 60.8678 80.75 60.334C80.4049 59.8001 79.9004 59.5332 79.2363 59.5332C78.3509 59.5332 77.7422 59.8717 77.4102 60.5488V64.875C77.7552 65.5716 78.3704 65.9199 79.2559 65.9199C80.6035 65.9199 81.2773 64.8164 81.2773 62.6094ZM85.418 62.6191C85.418 61.571 85.6198 60.6367 86.0234 59.8164C86.4271 58.9961 87.0065 58.3613 87.7617 57.9121C88.5234 57.4629 89.4056 57.2383 90.4082 57.2383C91.834 57.2383 92.9961 57.6745 93.8945 58.5469C94.7995 59.4193 95.304 60.6042 95.4082 62.1016L95.4277 62.8242C95.4277 64.4453 94.9753 65.7474 94.0703 66.7305C93.1654 67.707 91.9512 68.1953 90.4277 68.1953C88.9043 68.1953 87.6868 67.707 86.7754 66.7305C85.8704 65.7539 85.418 64.4258 85.418 62.7461V62.6191ZM88.2402 62.8242C88.2402 63.8268 88.429 64.5951 88.8066 65.1289C89.1842 65.6562 89.7246 65.9199 90.4277 65.9199C91.1113 65.9199 91.6452 65.6595 92.0293 65.1387C92.4134 64.6113 92.6055 63.7715 92.6055 62.6191C92.6055 61.6361 92.4134 60.8743 92.0293 60.334C91.6452 59.7936 91.1048 59.5234 90.4082 59.5234C89.7181 59.5234 89.1842 59.7936 88.8066 60.334C88.429 60.8678 88.2402 61.6979 88.2402 62.8242ZM97.3516 68V57.4336H101.766C103.204 57.4336 104.308 57.6875 105.076 58.1953C105.844 58.7031 106.229 59.4323 106.229 60.3828C106.229 60.8711 106.066 61.3105 105.74 61.7012C105.421 62.0853 104.952 62.3815 104.334 62.5898C105.089 62.7331 105.682 63.0163 106.111 63.4395C106.548 63.8561 106.766 64.3704 106.766 64.9824C106.766 65.9655 106.395 66.7142 105.652 67.2285C104.917 67.7428 103.846 68 102.439 68H97.3516ZM100.174 63.6152V65.7441H102.449C103.445 65.7441 103.943 65.3958 103.943 64.6992C103.943 63.9896 103.468 63.6283 102.518 63.6152H100.174ZM100.174 61.7207H101.922C102.911 61.7077 103.406 61.3887 103.406 60.7637C103.406 60.3796 103.27 60.1061 102.996 59.9434C102.729 59.7806 102.319 59.6992 101.766 59.6992H100.174V61.7207ZM113.357 68.1953C111.808 68.1953 110.545 67.7201 109.568 66.7695C108.598 65.819 108.113 64.5527 108.113 62.9707V62.6973C108.113 61.6361 108.318 60.6888 108.729 59.8555C109.139 59.0156 109.718 58.3711 110.467 57.9219C111.222 57.4661 112.081 57.2383 113.045 57.2383C114.49 57.2383 115.626 57.694 116.453 58.6055C117.286 59.5169 117.703 60.8092 117.703 62.4824V63.6348H110.975C111.066 64.3249 111.339 64.8783 111.795 65.2949C112.257 65.7116 112.84 65.9199 113.543 65.9199C114.63 65.9199 115.48 65.526 116.092 64.7383L117.479 66.291C117.055 66.89 116.482 67.3587 115.76 67.6973C115.037 68.0293 114.236 68.1953 113.357 68.1953ZM113.035 59.5234C112.475 59.5234 112.02 59.7122 111.668 60.0898C111.323 60.4674 111.102 61.0078 111.004 61.7109H114.93V61.4863C114.917 60.8613 114.747 60.3796 114.422 60.041C114.096 59.696 113.634 59.5234 113.035 59.5234ZM128.475 68H125.643V63.9375H122.137V68H119.314V57.4336H122.137V61.6719H125.643V57.4336H128.475V68ZM133.68 60.5293H135.701C136.613 60.5293 137.413 60.6823 138.104 60.9883C138.794 61.2943 139.321 61.7337 139.686 62.3066C140.057 62.873 140.242 63.5339 140.242 64.2891C140.242 65.4023 139.829 66.3008 139.002 66.9844C138.182 67.6615 137.062 68 135.643 68H130.848V57.4336H133.68V60.5293ZM133.68 62.7949V65.7441H135.682C136.242 65.7441 136.671 65.6139 136.971 65.3535C137.27 65.0931 137.42 64.7383 137.42 64.2891C137.42 63.8333 137.273 63.472 136.98 63.2051C136.688 62.9316 136.255 62.7949 135.682 62.7949H133.68Z" fill="#C3A07D"></path> <path d="M171.01 68H169.203V58.9277H164.34V68H162.523V57.4336H171.01V68ZM182.836 62.834C182.836 64.4421 182.468 65.7376 181.732 66.7207C180.997 67.7038 180.001 68.1953 178.744 68.1953C177.462 68.1953 176.452 67.7884 175.717 66.9746V72.0625H173.91V57.4336H175.561L175.648 58.6055C176.384 57.694 177.406 57.2383 178.715 57.2383C179.984 57.2383 180.987 57.7168 181.723 58.6738C182.465 59.6309 182.836 60.9622 182.836 62.668V62.834ZM181.029 62.6289C181.029 61.4375 180.775 60.4967 180.268 59.8066C179.76 59.1165 179.063 58.7715 178.178 58.7715C177.084 58.7715 176.264 59.2565 175.717 60.2266V65.2754C176.257 66.2389 177.084 66.7207 178.197 66.7207C179.063 66.7207 179.75 66.3789 180.258 65.6953C180.772 65.0052 181.029 63.9831 181.029 62.6289ZM184.662 62.6191C184.662 61.584 184.864 60.653 185.268 59.8262C185.678 58.9993 186.244 58.3613 186.967 57.9121C187.696 57.4629 188.526 57.2383 189.457 57.2383C190.896 57.2383 192.058 57.7363 192.943 58.7324C193.835 59.7285 194.281 61.0534 194.281 62.707V62.834C194.281 63.8626 194.083 64.7871 193.686 65.6074C193.295 66.4212 192.732 67.056 191.996 67.5117C191.267 67.9674 190.427 68.1953 189.477 68.1953C188.044 68.1953 186.882 67.6973 185.99 66.7012C185.105 65.7051 184.662 64.3867 184.662 62.7461V62.6191ZM186.479 62.834C186.479 64.0059 186.749 64.9466 187.289 65.6562C187.836 66.3659 188.565 66.7207 189.477 66.7207C190.395 66.7207 191.124 66.3626 191.664 65.6465C192.204 64.9238 192.475 63.9147 192.475 62.6191C192.475 61.4603 192.198 60.5228 191.645 59.8066C191.098 59.084 190.368 58.7227 189.457 58.7227C188.565 58.7227 187.846 59.0775 187.299 59.7871C186.752 60.4967 186.479 61.5124 186.479 62.834ZM203.373 58.9277H198.5V68H196.684V57.4336H203.373V58.9277ZM213.871 62.834C213.871 64.4421 213.503 65.7376 212.768 66.7207C212.032 67.7038 211.036 68.1953 209.779 68.1953C208.497 68.1953 207.488 67.7884 206.752 66.9746V72.0625H204.945V57.4336H206.596L206.684 58.6055C207.419 57.694 208.441 57.2383 209.75 57.2383C211.02 57.2383 212.022 57.7168 212.758 58.6738C213.5 59.6309 213.871 60.9622 213.871 62.668V62.834ZM212.064 62.6289C212.064 61.4375 211.811 60.4967 211.303 59.8066C210.795 59.1165 210.098 58.7715 209.213 58.7715C208.119 58.7715 207.299 59.2565 206.752 60.2266V65.2754C207.292 66.2389 208.119 66.7207 209.232 66.7207C210.098 66.7207 210.785 66.3789 211.293 65.6953C211.807 65.0052 212.064 63.9831 212.064 62.6289ZM222.699 68C222.595 67.7917 222.51 67.4206 222.445 66.8867C221.605 67.7591 220.603 68.1953 219.438 68.1953C218.396 68.1953 217.54 67.9023 216.869 67.3164C216.205 66.724 215.873 65.9753 215.873 65.0703C215.873 63.9701 216.29 63.1172 217.123 62.5117C217.963 61.8997 219.141 61.5938 220.658 61.5938H222.416V60.7637C222.416 60.1322 222.227 59.6309 221.85 59.2598C221.472 58.8822 220.915 58.6934 220.18 58.6934C219.535 58.6934 218.995 58.8561 218.559 59.1816C218.122 59.5072 217.904 59.901 217.904 60.3633H216.088C216.088 59.8359 216.273 59.3281 216.645 58.8398C217.022 58.3451 217.53 57.9544 218.168 57.668C218.812 57.3815 219.519 57.2383 220.287 57.2383C221.505 57.2383 222.458 57.5443 223.148 58.1562C223.839 58.7617 224.197 59.5983 224.223 60.666V65.5293C224.223 66.4993 224.346 67.2708 224.594 67.8438V68H222.699ZM219.701 66.623C220.268 66.623 220.805 66.4766 221.312 66.1836C221.82 65.8906 222.188 65.5098 222.416 65.041V62.873H221C218.786 62.873 217.68 63.5208 217.68 64.8164C217.68 65.3828 217.868 65.8255 218.246 66.1445C218.624 66.4635 219.109 66.623 219.701 66.623ZM233.139 65.6074L236.732 57.4336H238.988V68H237.182V60.3145L233.764 68H232.514L229.027 60.1484V68H227.221V57.4336H229.564L233.139 65.6074ZM247.982 65.6074L251.576 57.4336H253.832V68H252.025V60.3145L248.607 68H247.357L243.871 60.1484V68H242.064V57.4336H244.408L247.982 65.6074ZM263.266 68C263.161 67.7917 263.077 67.4206 263.012 66.8867C262.172 67.7591 261.169 68.1953 260.004 68.1953C258.962 68.1953 258.106 67.9023 257.436 67.3164C256.771 66.724 256.439 65.9753 256.439 65.0703C256.439 63.9701 256.856 63.1172 257.689 62.5117C258.529 61.8997 259.708 61.5938 261.225 61.5938H262.982V60.7637C262.982 60.1322 262.794 59.6309 262.416 59.2598C262.038 58.8822 261.482 58.6934 260.746 58.6934C260.102 58.6934 259.561 58.8561 259.125 59.1816C258.689 59.5072 258.471 59.901 258.471 60.3633H256.654C256.654 59.8359 256.84 59.3281 257.211 58.8398C257.589 58.3451 258.096 57.9544 258.734 57.668C259.379 57.3815 260.085 57.2383 260.854 57.2383C262.071 57.2383 263.025 57.5443 263.715 58.1562C264.405 58.7617 264.763 59.5983 264.789 60.666V65.5293C264.789 66.4993 264.913 67.2708 265.16 67.8438V68H263.266ZM260.268 66.623C260.834 66.623 261.371 66.4766 261.879 66.1836C262.387 65.8906 262.755 65.5098 262.982 65.041V62.873H261.566C259.353 62.873 258.246 63.5208 258.246 64.8164C258.246 65.3828 258.435 65.8255 258.812 66.1445C259.19 66.4635 259.675 66.623 260.268 66.623ZM273.93 52.8145L274.965 53.5176C274.359 54.3444 274.047 55.2363 274.027 56.1934V57.5215H272.23V56.3887C272.23 55.7246 272.387 55.0671 272.699 54.416C273.018 53.765 273.428 53.2311 273.93 52.8145ZM277.006 52.8145L278.041 53.5176C277.436 54.3444 277.123 55.2363 277.104 56.1934V57.5215H275.307V56.3887C275.307 55.7246 275.463 55.0671 275.775 54.416C276.094 53.765 276.505 53.2311 277.006 52.8145ZM289.76 55.3242H285.189V68H283.324V55.3242H278.764V53.7812H289.76V55.3242ZM290.131 62.6191C290.131 61.584 290.333 60.653 290.736 59.8262C291.146 58.9993 291.713 58.3613 292.436 57.9121C293.165 57.4629 293.995 57.2383 294.926 57.2383C296.365 57.2383 297.527 57.7363 298.412 58.7324C299.304 59.7285 299.75 61.0534 299.75 62.707V62.834C299.75 63.8626 299.551 64.7871 299.154 65.6074C298.764 66.4212 298.201 67.056 297.465 67.5117C296.736 67.9674 295.896 68.1953 294.945 68.1953C293.513 68.1953 292.351 67.6973 291.459 66.7012C290.574 65.7051 290.131 64.3867 290.131 62.7461V62.6191ZM291.947 62.834C291.947 64.0059 292.217 64.9466 292.758 65.6562C293.305 66.3659 294.034 66.7207 294.945 66.7207C295.863 66.7207 296.592 66.3626 297.133 65.6465C297.673 64.9238 297.943 63.9147 297.943 62.6191C297.943 61.4603 297.667 60.5228 297.113 59.8066C296.566 59.084 295.837 58.7227 294.926 58.7227C294.034 58.7227 293.314 59.0775 292.768 59.7871C292.221 60.4967 291.947 61.5124 291.947 62.834ZM309.652 58.8984H306.107V68H304.301V58.8984H300.824V57.4336H309.652V58.8984ZM317.777 68C317.673 67.7917 317.589 67.4206 317.523 66.8867C316.684 67.7591 315.681 68.1953 314.516 68.1953C313.474 68.1953 312.618 67.9023 311.947 67.3164C311.283 66.724 310.951 65.9753 310.951 65.0703C310.951 63.9701 311.368 63.1172 312.201 62.5117C313.041 61.8997 314.219 61.5938 315.736 61.5938H317.494V60.7637C317.494 60.1322 317.305 59.6309 316.928 59.2598C316.55 58.8822 315.993 58.6934 315.258 58.6934C314.613 58.6934 314.073 58.8561 313.637 59.1816C313.201 59.5072 312.982 59.901 312.982 60.3633H311.166C311.166 59.8359 311.352 59.3281 311.723 58.8398C312.1 58.3451 312.608 57.9544 313.246 57.668C313.891 57.3815 314.597 57.2383 315.365 57.2383C316.583 57.2383 317.536 57.5443 318.227 58.1562C318.917 58.7617 319.275 59.5983 319.301 60.666V65.5293C319.301 66.4993 319.424 67.2708 319.672 67.8438V68H317.777ZM314.779 66.623C315.346 66.623 315.883 66.4766 316.391 66.1836C316.898 65.8906 317.266 65.5098 317.494 65.041V62.873H316.078C313.865 62.873 312.758 63.5208 312.758 64.8164C312.758 65.3828 312.947 65.8255 313.324 66.1445C313.702 66.4635 314.187 66.623 314.779 66.623ZM330.795 57.4336V68H328.979V58.9277H325.385L325.17 62.8828C325.053 64.6992 324.747 65.998 324.252 66.7793C323.764 67.5605 322.986 67.9674 321.918 68H321.195V66.4082L321.713 66.3691C322.299 66.304 322.719 65.9655 322.973 65.3535C323.227 64.7415 323.389 63.6087 323.461 61.9551L323.656 57.4336H330.795ZM335.668 61.0762H338.412C339.61 61.0892 340.557 61.4017 341.254 62.0137C341.951 62.6257 342.299 63.4557 342.299 64.5039C342.299 65.5586 341.941 66.4049 341.225 67.043C340.508 67.681 339.545 68 338.334 68H333.861V57.4336H335.668V61.0762ZM335.668 62.5508V66.5254H338.354C339.031 66.5254 339.555 66.3529 339.926 66.0078C340.297 65.6562 340.482 65.1777 340.482 64.5723C340.482 63.9863 340.3 63.5078 339.936 63.1367C339.577 62.7591 339.073 62.5638 338.422 62.5508H335.668ZM353.188 68H351.381V63.4883H346.527V68H344.711V57.4336H346.527V62.0137H351.381V57.4336H353.188V68ZM362.621 68C362.517 67.7917 362.432 67.4206 362.367 66.8867C361.527 67.7591 360.525 68.1953 359.359 68.1953C358.318 68.1953 357.462 67.9023 356.791 67.3164C356.127 66.724 355.795 65.9753 355.795 65.0703C355.795 63.9701 356.212 63.1172 357.045 62.5117C357.885 61.8997 359.063 61.5938 360.58 61.5938H362.338V60.7637C362.338 60.1322 362.149 59.6309 361.771 59.2598C361.394 58.8822 360.837 58.6934 360.102 58.6934C359.457 58.6934 358.917 58.8561 358.48 59.1816C358.044 59.5072 357.826 59.901 357.826 60.3633H356.01C356.01 59.8359 356.195 59.3281 356.566 58.8398C356.944 58.3451 357.452 57.9544 358.09 57.668C358.734 57.3815 359.441 57.2383 360.209 57.2383C361.426 57.2383 362.38 57.5443 363.07 58.1562C363.76 58.7617 364.118 59.5983 364.145 60.666V65.5293C364.145 66.4993 364.268 67.2708 364.516 67.8438V68H362.621ZM359.623 66.623C360.189 66.623 360.727 66.4766 361.234 66.1836C361.742 65.8906 362.11 65.5098 362.338 65.041V62.873H360.922C358.708 62.873 357.602 63.5208 357.602 64.8164C357.602 65.3828 357.79 65.8255 358.168 66.1445C358.546 66.4635 359.031 66.623 359.623 66.623ZM375.053 57.4336V68H373.236V63.8887H370.512L368.021 68H366.068L368.725 63.6152C368.048 63.3678 367.527 62.987 367.162 62.4727C366.804 61.9518 366.625 61.3464 366.625 60.6562C366.625 59.6927 366.986 58.918 367.709 58.332C368.432 57.7396 369.398 57.4401 370.609 57.4336H375.053ZM368.441 60.6758C368.441 61.1901 368.617 61.6068 368.969 61.9258C369.32 62.2383 369.786 62.3978 370.365 62.4043H373.236V58.8984H370.639C369.968 58.8984 369.434 59.0645 369.037 59.3965C368.64 59.722 368.441 60.1484 368.441 60.6758ZM386.371 65.3535L388.832 57.4336H390.766L386.518 69.6309C385.86 71.3887 384.815 72.2676 383.383 72.2676L383.041 72.2383L382.367 72.1113V70.6465L382.855 70.6855C383.467 70.6855 383.943 70.5618 384.281 70.3145C384.626 70.0671 384.91 69.6146 385.131 68.957L385.531 67.8828L381.762 57.4336H383.734L386.371 65.3535ZM401.029 68H399.223V58.9277H394.359V68H392.543V57.4336H401.029V68ZM410.453 68C410.349 67.7917 410.264 67.4206 410.199 66.8867C409.359 67.7591 408.357 68.1953 407.191 68.1953C406.15 68.1953 405.294 67.9023 404.623 67.3164C403.959 66.724 403.627 65.9753 403.627 65.0703C403.627 63.9701 404.044 63.1172 404.877 62.5117C405.717 61.8997 406.895 61.5938 408.412 61.5938H410.17V60.7637C410.17 60.1322 409.981 59.6309 409.604 59.2598C409.226 58.8822 408.669 58.6934 407.934 58.6934C407.289 58.6934 406.749 58.8561 406.312 59.1816C405.876 59.5072 405.658 59.901 405.658 60.3633H403.842C403.842 59.8359 404.027 59.3281 404.398 58.8398C404.776 58.3451 405.284 57.9544 405.922 57.668C406.566 57.3815 407.273 57.2383 408.041 57.2383C409.258 57.2383 410.212 57.5443 410.902 58.1562C411.592 58.7617 411.951 59.5983 411.977 60.666V65.5293C411.977 66.4993 412.1 67.2708 412.348 67.8438V68H410.453ZM407.455 66.623C408.021 66.623 408.559 66.4766 409.066 66.1836C409.574 65.8906 409.942 65.5098 410.17 65.041V62.873H408.754C406.54 62.873 405.434 63.5208 405.434 64.8164C405.434 65.3828 405.622 65.8255 406 66.1445C406.378 66.4635 406.863 66.623 407.455 66.623ZM418.1 63.498H416.781V68H414.965V57.4336H416.781V61.9062H417.963L421.518 57.4336H423.705L419.525 62.5117L424.057 68H421.762L418.1 63.498ZM424.916 62.6191C424.916 61.584 425.118 60.653 425.521 59.8262C425.932 58.9993 426.498 58.3613 427.221 57.9121C427.95 57.4629 428.78 57.2383 429.711 57.2383C431.15 57.2383 432.312 57.7363 433.197 58.7324C434.089 59.7285 434.535 61.0534 434.535 62.707V62.834C434.535 63.8626 434.337 64.7871 433.939 65.6074C433.549 66.4212 432.986 67.056 432.25 67.5117C431.521 67.9674 430.681 68.1953 429.73 68.1953C428.298 68.1953 427.136 67.6973 426.244 66.7012C425.359 65.7051 424.916 64.3867 424.916 62.7461V62.6191ZM426.732 62.834C426.732 64.0059 427.003 64.9466 427.543 65.6562C428.09 66.3659 428.819 66.7207 429.73 66.7207C430.648 66.7207 431.378 66.3626 431.918 65.6465C432.458 64.9238 432.729 63.9147 432.729 62.6191C432.729 61.4603 432.452 60.5228 431.898 59.8066C431.352 59.084 430.622 58.7227 429.711 58.7227C428.819 58.7227 428.1 59.0775 427.553 59.7871C427.006 60.4967 426.732 61.5124 426.732 62.834ZM436.967 68V57.4336H441.088C442.494 57.4336 443.572 57.681 444.32 58.1758C445.076 58.6641 445.453 59.3835 445.453 60.334C445.453 60.8223 445.307 61.265 445.014 61.6621C444.721 62.0527 444.288 62.3522 443.715 62.5605C444.353 62.7103 444.864 63.0033 445.248 63.4395C445.639 63.8757 445.834 64.3965 445.834 65.002C445.834 65.972 445.476 66.7142 444.76 67.2285C444.05 67.7428 443.044 68 441.742 68H436.967ZM438.773 63.3613V66.5449H441.762C442.517 66.5449 443.08 66.4049 443.451 66.125C443.829 65.8451 444.018 65.4512 444.018 64.9434C444.018 63.8887 443.243 63.3613 441.693 63.3613H438.773ZM438.773 61.916H441.107C442.8 61.916 443.646 61.4212 443.646 60.4316C443.646 59.4421 442.846 58.931 441.244 58.8984H438.773V61.916ZM451.518 63.498H450.199V68H448.383V57.4336H450.199V61.9062H451.381L454.936 57.4336H457.123L452.943 62.5117L457.475 68H455.18L451.518 63.498ZM465.551 68C465.447 67.7917 465.362 67.4206 465.297 66.8867C464.457 67.7591 463.454 68.1953 462.289 68.1953C461.247 68.1953 460.391 67.9023 459.721 67.3164C459.057 66.724 458.725 65.9753 458.725 65.0703C458.725 63.9701 459.141 63.1172 459.975 62.5117C460.814 61.8997 461.993 61.5938 463.51 61.5938H465.268V60.7637C465.268 60.1322 465.079 59.6309 464.701 59.2598C464.324 58.8822 463.767 58.6934 463.031 58.6934C462.387 58.6934 461.846 58.8561 461.41 59.1816C460.974 59.5072 460.756 59.901 460.756 60.3633H458.939C458.939 59.8359 459.125 59.3281 459.496 58.8398C459.874 58.3451 460.382 57.9544 461.02 57.668C461.664 57.3815 462.37 57.2383 463.139 57.2383C464.356 57.2383 465.31 57.5443 466 58.1562C466.69 58.7617 467.048 59.5983 467.074 60.666V65.5293C467.074 66.4993 467.198 67.2708 467.445 67.8438V68H465.551ZM462.553 66.623C463.119 66.623 463.656 66.4766 464.164 66.1836C464.672 65.8906 465.04 65.5098 465.268 65.041V62.873H463.852C461.638 62.873 460.531 63.5208 460.531 64.8164C460.531 65.3828 460.72 65.8255 461.098 66.1445C461.475 66.4635 461.96 66.623 462.553 66.623ZM469.486 57.7852L468.461 57.082C469.066 56.2357 469.379 55.3438 469.398 54.4062V53H471.186V54.2695C471.179 54.9206 471.016 55.5716 470.697 56.2227C470.385 56.8672 469.981 57.388 469.486 57.7852ZM472.484 57.7852L471.459 57.082C472.064 56.2357 472.377 55.3438 472.396 54.4062V53H474.184V54.2695C474.177 54.9206 474.014 55.5716 473.695 56.2227C473.383 56.8672 472.979 57.388 472.484 57.7852Z" fill="#282828"></path> <defs> <filter id="filter0_d" x="38" y="103" width="489.6" height="76" filterUnits="userSpaceOnUse" color-interpolation-filters="sRGB"> <feFlood flood-opacity="0" result="BackgroundImageFix"></feFlood> <feColorMatrix in="SourceAlpha" type="matrix" values="0 0 0 0 0 0 0 0 0 0 0 0 0 0 0 0 0 0 127 0"></feColorMatrix> <feOffset dx="3" dy="3"></feOffset> <feGaussianBlur stdDeviation="4"></feGaussianBlur> <feColorMatrix type="matrix" values="0 0 0 0 0 0 0 0 0 0 0 0 0 0 0 0 0 0 0.25 0"></feColorMatrix> <feBlend mode="normal" in2="BackgroundImageFix" result="effect1_dropShadow"></feBlend> <feBlend mode="normal" in="SourceGraphic" in2="effect1_dropShadow" result="shape"></feBlend> </filter> </defs> </svg> 